<svg version="1.0" xmlns="http://www.w3.org/2000/svg"
 width="500.000000pt" height="500.000000pt" viewBox="0 0 500.000000 500.000000"
 preserveAspectRatio="xMidYMid meet">

<g transform="translate(0.000000,500.000000) scale(0.100000,-0.100000)"
fill="#000000" stroke="none">
<path d="M2246 4943 c-3 -21 -15 -119 -26 -218 -11 -99 -23 -192 -26 -206 -5
-24 -12 -27 -112 -47 -59 -12 -156 -37 -217 -56 -60 -19 -110 -34 -111 -33
-104 150 -216 289 -271 334 l-48 41 -80 -40 c-122 -60 -285 -163 -285 -179 0
-6 13 -41 29 -77 15 -37 57 -134 92 -215 l63 -149 -69 -61 c-85 -76 -131 -122
-211 -212 l-62 -68 -98 41 c-55 22 -151 64 -214 91 -63 28 -120 51 -127 51
-26 0 -213 -318 -213 -361 0 -5 82 -70 182 -145 101 -75 186 -139 190 -143 4
-3 -11 -62 -33 -131 -22 -69 -49 -172 -61 -230 -11 -58 -22 -106 -23 -108 -1
-1 -92 -14 -201 -27 -110 -14 -217 -28 -240 -30 l-41 -6 -5 -117 c-3 -64 -3
-161 1 -215 l6 -99 60 -25 c61 -25 110 -34 275 -53 152 -17 160 -19 160 -45 0
-33 55 -241 86 -325 15 -40 23 -75 18 -79 -5 -4 -93 -70 -196 -146 l-187 -139
49 -95 c27 -53 76 -137 108 -187 59 -90 59 -91 119 -107 77 -22 75 -22 152 12
36 17 117 52 179 78 l113 49 84 -86 c46 -47 109 -105 139 -130 30 -25 55 -50
56 -57 0 -6 -38 -100 -85 -208 -47 -108 -87 -206 -91 -218 -4 -20 6 -30 73
-73 168 -109 328 -183 393 -184 9 0 40 34 70 76 30 42 69 94 85 115 17 21 54
70 83 109 29 38 59 70 67 70 8 0 49 -11 92 -24 43 -13 110 -29 148 -36 99 -17
102 -18 109 -43 3 -12 14 -105 26 -207 31 -285 21 -255 93 -268 88 -16 299
-24 387 -15 l75 8 12 110 c7 61 17 144 22 185 6 41 13 98 17 127 6 51 7 53 42
58 78 11 191 38 280 67 52 16 95 28 97 26 1 -2 57 -77 125 -168 111 -150 126
-166 166 -179 43 -14 43 -14 136 34 72 37 245 141 266 160 2 2 -9 31 -24 64
-15 34 -25 64 -22 66 2 3 42 12 89 20 210 39 325 97 411 208 l32 42 -46 -42
c-61 -55 -106 -77 -232 -112 -200 -57 -525 -67 -648 -21 -79 29 -124 78 -150
164 -27 89 -21 182 19 285 23 62 40 87 103 150 41 42 95 92 120 111 102 79
229 212 246 256 20 53 9 90 -30 100 -51 12 -188 -43 -311 -125 -69 -47 -196
-156 -215 -186 -7 -11 14 3 46 31 89 76 262 184 294 184 18 0 -72 -109 -156
-191 -168 -161 -340 -266 -549 -334 -579 -190 -1198 -4 -1579 474 -85 106
-144 249 -188 455 -32 151 -32 426 1 586 13 63 30 130 38 148 l15 32 77 -72
c82 -78 204 -155 298 -190 89 -33 218 -30 302 5 79 33 101 52 101 87 0 47 -64
77 -99 46 -37 -33 -100 -49 -177 -44 -64 4 -89 12 -171 53 -83 41 -110 62
-192 144 -53 53 -122 136 -155 185 -61 93 -166 294 -166 319 0 21 139 32 289
22 132 -8 310 -49 393 -91 139 -70 241 -162 291 -264 l32 -65 5 -740 c3 -407
7 -741 8 -742 1 -1 18 -5 38 -9 71 -13 68 -27 74 464 l5 437 33 69 c113 240
426 406 765 406 90 0 197 -21 197 -38 0 -41 -48 -189 -87 -271 -96 -202 -245
-355 -413 -427 -78 -33 -213 -44 -285 -24 -58 16 -93 7 -101 -27 -13 -51 22
-76 134 -93 133 -21 287 18 422 105 122 79 269 247 345 397 l40 78 -3 -531
c-3 -501 -2 -532 15 -545 26 -20 57 -17 79 7 18 20 19 52 22 893 l3 871 -22
18 c-28 22 -44 22 -69 -3 -18 -18 -20 -33 -20 -171 l0 -151 -47 8 c-27 5 -129
9 -228 8 -161 -1 -190 -4 -277 -27 -183 -49 -342 -139 -450 -255 l-55 -60 -7
175 c-5 106 -13 195 -23 226 -20 68 -75 158 -132 216 -75 77 -230 173 -331
206 -30 9 -59 21 -63 25 -19 17 159 165 305 253 220 133 520 226 689 213 453
-33 893 -318 1125 -729 118 -210 184 -460 184 -702 0 -166 -42 -382 -104 -534
l-23 -58 51 20 c29 11 76 20 108 20 67 0 64 -4 109 156 108 382 63 801 -122
1139 -63 115 -141 219 -247 326 -111 114 -80 99 52 -25 211 -198 340 -415 415
-699 78 -297 60 -624 -49 -913 -19 -49 -30 -98 -30 -128 0 -97 -64 -237 -151
-328 -22 -24 -71 -70 -107 -103 -119 -107 -171 -199 -150 -260 14 -39 42 -51
104 -45 54 6 147 54 288 150 121 82 241 103 337 60 69 -31 119 -109 119 -185
0 -75 75 15 182 218 l58 112 -162 121 c-90 67 -176 132 -192 144 l-29 23 23
68 c24 73 23 79 -27 92 -28 8 -28 9 -2 89 19 60 24 66 64 84 45 20 51 31 57
96 l3 30 130 16 c72 9 178 22 237 29 l107 13 7 31 c12 49 7 341 -5 379 -23 70
-36 75 -266 102 -115 14 -210 27 -212 29 -2 2 -15 50 -28 107 -14 57 -40 145
-58 196 -17 50 -29 94 -27 96 9 8 147 111 263 197 132 97 127 73 43 225 -58
106 -169 277 -192 296 -18 15 -24 13 -259 -89 -88 -38 -169 -72 -180 -76 -16
-5 -45 20 -148 129 l-128 134 52 118 c28 65 62 143 76 173 57 126 57 124 14
178 -43 53 -137 118 -301 205 l-106 56 -59 -79 c-33 -44 -91 -122 -130 -173
-38 -51 -77 -103 -85 -116 l-15 -23 -123 41 c-68 22 -153 47 -190 54 l-67 14
-11 69 c-6 38 -17 125 -24 193 l-13 124 -49 58 -49 59 -213 0 -214 0 -6 -37z
m594 -804 c114 -14 274 -56 383 -101 54 -23 96 -42 95 -43 -2 -2 -49 12 -104
31 -329 108 -686 105 -1024 -7 -244 -80 -477 -220 -654 -392 l-91 -88 -53 6
c-86 10 -316 7 -403 -6 -88 -13 -109 -26 -109 -68 0 -54 129 -327 205 -432 31
-44 32 -47 18 -79 -25 -60 -71 -252 -82 -345 -24 -196 -11 -427 34 -605 75
-298 206 -523 439 -755 104 -103 104 -106 1 -21 -275 227 -446 504 -538 866
-30 122 -31 131 -32 350 0 222 2 240 40 400 11 48 48 156 56 165 15 16 10 42
-15 72 -39 47 -143 240 -183 340 -62 159 -46 168 307 168 l235 0 35 39 c19 21
73 71 120 111 377 318 834 455 1320 394z m511 -2931 c-12 -18 -29 -50 -38 -72
-13 -32 -26 -43 -72 -63 -161 -72 -321 -113 -521 -134 -183 -19 -415 11 -615
80 -83 29 -130 50 -110 50 6 0 37 -8 69 -19 200 -67 494 -84 716 -42 190 35
396 113 535 200 28 17 52 32 53 32 2 0 -6 -15 -17 -32z"/>
</g>
</svg>
